<?xml version="1.0" standalone="no"?>
<!DOCTYPE svg PUBLIC "-//W3C//DTD SVG 20010904//EN"
 "http://www.w3.org/TR/2001/REC-SVG-20010904/DTD/svg10.dtd">
<svg version="1.0" xmlns="http://www.w3.org/2000/svg"
 width="700.000000pt" height="700.000000pt" viewBox="0 0 700.000000 700.000000"
 preserveAspectRatio="xMidYMid meet">
<metadata>
Created by potrace 1.14, written by Peter Selinger 2001-2017
</metadata>
<g transform="translate(0.000000,700.000000) scale(0.100000,-0.100000)"
fill="#000000" stroke="none">
<path d="M1569 6996 c-2 -2 -31 -7 -64 -11 -431 -49 -841 -276 -1120 -620
-168 -209 -282 -441 -341 -697 -10 -44 -14 -65 -19 -93 -3 -16 -8 -43 -12 -60
-4 -16 -8 -905 -9 -1975 -2 -2101 -4 -2034 51 -2249 54 -216 152 -420 286
-600 69 -93 227 -257 299 -311 25 -19 47 -37 50 -40 27 -28 223 -143 314 -185
127 -57 300 -110 424 -130 23 -4 54 -9 70 -13 15 -3 900 -7 1967 -8 1977 -3
1971 -3 2165 31 155 27 390 120 547 216 447 274 756 755 810 1264 10 88 11
3888 1 3970 -50 437 -282 856 -629 1135 -225 181 -524 316 -784 354 -23 4 -52
10 -65 13 -25 8 -3933 16 -3941 9z"/>
</g>
</svg>
