<svg width="23" height="23" viewBox="0 0 23 23" fill="none" xmlns="http://www.w3.org/2000/svg">
<g clip-path="url(#clip0)">
<path d="M22.0202 17.2472L18.9572 14.1949C18.3521 13.6005 17.3828 13.6005 16.7777 14.1949L14.8339 16.1869C14.6358 16.3583 14.3466 16.3583 14.1485 16.1869C12.708 15.0357 11.3265 13.8147 10.0145 12.5189C8.70259 11.2176 7.47097 9.84677 6.31432 8.40631C6.13225 8.21354 6.13225 7.91366 6.31432 7.72089L8.34917 5.73423C8.94356 5.11842 8.94356 4.14383 8.34917 3.52802L5.28618 0.465026C4.66502 -0.113301 3.70114 -0.113301 3.07997 0.465026L0.563181 2.99253C0.563181 2.99253 0.450729 3.09963 0.413245 3.14247C-1.0058 4.84532 1.25932 10.2484 6.75342 15.7104C10.7535 19.7319 15.273 22.4254 17.9719 22.4254C18.4217 22.4682 18.8929 22.4147 19.2678 22.163C19.3427 22.1094 19.5516 21.922 19.5516 21.922L22.0202 19.4427C22.6199 18.8323 22.6199 17.8577 22.0202 17.2472Z" fill="#16B455"/>
</g>
<defs>
<clipPath id="clip0">
<rect width="22.47" height="22.47" fill="white"/>
</clipPath>
</defs>
</svg>
