<svg width="24" height="24" viewBox="0 0 24 24" fill="none" xmlns="http://www.w3.org/2000/svg">
    <!-- width="110" height="33" viewBox="0 0 110 33" -->
    <symbol id="text">
        <path d="M0.5 31.6275V32.1275H1H6.77194H7.27194V31.6275V23.2943L14.1312 31.9383L14.2813 32.1275H14.5228H22.0264H23.1389L22.4002 31.2955L12.5506 20.2017L22.3203 9.02737L23.0452 8.19826H21.9439H14.4404H14.1979L14.0477 8.3887L7.27194 16.9828V1V0.5H6.77194H1H0.5V1V31.6275ZM41.0678 10.605C39.5233 9.04976 37.1689 7.82577 34.0231 7.82577C27.8956 7.82577 23.0924 12.6836 23.0924 20.0801C23.0924 27.4655 27.8854 32.5 33.9819 32.5C37.0937 32.5 39.5015 31.2757 41.0678 29.6684V31.6275V32.1275H41.5678H47.381H47.881V31.6275V8.69826V8.19826H47.381H41.5678H41.0678V8.69826V10.605ZM84.4701 31.6275V32.1275H84.9701H90.7421H91.2421V31.6275V18.1762C91.2421 14.9065 90.2393 12.3172 88.4732 10.5442C86.7078 8.77197 84.2313 7.86715 81.3833 7.86715C78.175 7.86715 75.2441 9.42776 73.5593 11.8096C71.8164 9.22484 68.9104 7.86715 65.5104 7.86715C63.0449 7.86715 60.8509 8.72757 59.2903 10.1773V8.69826V8.19826H58.7903H53.0183H52.5183V8.69826V31.6275V32.1275H53.0183H58.7903H59.2903V31.6275V18.9626C59.2903 17.2319 59.769 15.9839 60.5522 15.1706C61.3334 14.3592 62.479 13.9166 63.9438 13.9166C65.3637 13.9166 66.4889 14.3571 67.2612 15.1685C68.0361 15.9825 68.5148 17.2319 68.5148 18.9626V31.6275V32.1275H69.0148H74.7868H75.2868V31.6275V18.9626C75.2868 17.2319 75.7655 15.9832 76.5445 15.1695C77.3213 14.3582 78.4567 13.9166 79.8991 13.9166C81.319 13.9166 82.4441 14.3571 83.2165 15.1685C83.9913 15.9825 84.4701 17.2319 84.4701 18.9626V31.6275ZM109 14.9513H109.5V14.4513V8.36715V7.86715H109C106.248 7.86715 104.04 8.96175 102.491 10.7325V8.69826V8.19826H101.991H96.2193H95.7193V8.69826V31.6275V32.1275H96.2193H101.991H102.491V31.6275V20.2043C102.491 18.0564 102.992 16.782 103.792 16.0317C104.598 15.2759 105.812 14.9513 107.475 14.9513H109ZM41.0678 20.1629C41.0678 22.221 40.387 23.7769 39.3706 24.8161C38.3515 25.858 36.9676 26.4092 35.5073 26.4092C32.71 26.4092 29.988 24.1688 29.988 20.0801C29.988 18.0245 30.6774 16.4904 31.6924 15.4715C32.7111 14.4488 34.0859 13.9166 35.5073 13.9166C36.9676 13.9166 38.3515 14.4678 39.3706 15.5097C40.387 16.5488 41.0678 18.1048 41.0678 20.1629Z" fill="currentColor" stroke="currentColor"/>
    </symbol>
    <symbol id="guest">
        <path d="M23 19C23 19.2652 22.8946 19.5196 22.7071 19.7071C22.5196 19.8946 22.2652 20 22 20H10C9.73478 20 9.48043 19.8946 9.29289 19.7071C9.10536 19.5196 9 19.2652 9 19C9 17.4087 9.63214 15.8826 10.7574 14.7573C11.8826 13.6321 13.4087 13 15 13H17C18.5913 13 20.1174 13.6321 21.2426 14.7573C22.3679 15.8826 23 17.4087 23 19ZM16 4C15.2089 4 14.4355 4.2346 13.7777 4.67412C13.1199 5.11365 12.6072 5.73836 12.3045 6.46926C12.0017 7.20017 11.9225 8.00443 12.0769 8.78036C12.2312 9.55628 12.6122 10.269 13.1716 10.8284C13.731 11.3878 14.4437 11.7688 15.2196 11.9231C15.9956 12.0775 16.7998 11.9983 17.5307 11.6955C18.2616 11.3928 18.8864 10.8801 19.3259 10.2223C19.7654 9.56448 20 8.79112 20 8C20 6.93913 19.5786 5.92172 18.8284 5.17157C18.0783 4.42143 17.0609 4 16 4ZM7 4C6.20887 4 5.43552 4.2346 4.77772 4.67412C4.11992 5.11365 3.60723 5.73836 3.30448 6.46926C3.00173 7.20017 2.92252 8.00443 3.07686 8.78036C3.2312 9.55628 3.61216 10.269 4.17157 10.8284C4.73098 11.3878 5.44371 11.7688 6.21964 11.9231C6.99556 12.0775 7.79983 11.9983 8.53073 11.6955C9.26164 11.3928 9.88635 10.8801 10.3259 10.2223C10.7654 9.56448 11 8.79112 11 8C11 6.93913 10.5786 5.92172 9.82843 5.17157C9.07828 4.42143 8.06087 4 7 4ZM7 19C6.99851 17.9496 7.20546 16.9094 7.60884 15.9395C8.01223 14.9697 8.60404 14.0895 9.35 13.35C8.73954 13.1195 8.09253 13.0009 7.44 13H6.56C5.08621 13.0026 3.67354 13.5893 2.63141 14.6314C1.58928 15.6735 1.00264 17.0862 1 18.56V19C1 19.2652 1.10536 19.5196 1.29289 19.7071C1.48043 19.8946 1.73478 20 2 20H7.18C7.06358 19.6793 7.0027 19.3411 7 19Z" fill="currentColor"/>
    </symbol>
    <!-- viewBox="0 0 20 20" -->
    <symbol id="pencil">
        <path d="M3.02501 12.5567L7.44702 16.9762L16.2478 8.17043L11.8258 3.75092L3.02501 12.5567Z" fill="currentColor"/>
        <path d="M19.6339 3.01762L16.9825 0.366211C16.7399 0.123594 16.4225 0.00160156 16.1049 0H16.0917C15.7741 0.00160156 15.4571 0.123594 15.2151 0.366211L13.4451 2.13383L17.8663 6.55262L19.6339 4.785C19.8765 4.54238 19.9985 4.22539 20.0001 3.90781V3.89461C19.9985 3.57719 19.8765 3.2602 19.6339 3.01762Z" fill="currentColor"/>
        <path d="M0 20L5.745 18.6738L1.32379 14.255L0 20Z" fill="currentColor"/>
    </symbol>
    <symbol id="booking">
        <path d="M19 5H18V3C18 2.73478 17.8946 2.48043 17.7071 2.29289C17.5196 2.10536 17.2652 2 17 2C16.7348 2 16.4804 2.10536 16.2929 2.29289C16.1054 2.48043 16 2.73478 16 3V5H8V3C8 2.73478 7.89464 2.48043 7.70711 2.29289C7.51957 2.10536 7.26522 2 7 2C6.73478 2 6.48043 2.10536 6.29289 2.29289C6.10536 2.48043 6 2.73478 6 3V5H5C4.20435 5 3.44129 5.31607 2.87868 5.87868C2.31607 6.44129 2 7.20435 2 8V9H22V8C22 7.20435 21.6839 6.44129 21.1213 5.87868C20.5587 5.31607 19.7957 5 19 5Z" fill="currentColor"/>
        <path d="M2 19C2 19.7956 2.31607 20.5587 2.87868 21.1213C3.44129 21.6839 4.20435 22 5 22H19C19.7957 22 20.5587 21.6839 21.1213 21.1213C21.6839 20.5587 22 19.7956 22 19V11H2V19Z" fill="currentColor"/>
    </symbol>
    <symbol id="dashboard">
        <path d="M8.5 1H3.5C2.11929 1 1 2.11929 1 3.5V5.5C1 6.88071 2.11929 8 3.5 8H8.5C9.88071 8 11 6.88071 11 5.5V3.5C11 2.11929 9.88071 1 8.5 1Z" fill="currentColor"/>
        <path d="M20.4999 16H15.4999C14.1192 16 12.9999 17.1193 12.9999 18.5V20.5C12.9999 21.8807 14.1192 23 15.4999 23H20.4999C21.8806 23 22.9999 21.8807 22.9999 20.5V18.5C22.9999 17.1193 21.8806 16 20.4999 16Z" fill="currentColor"/>
        <path d="M8.5 9H3.5C2.11929 9 1 10.1193 1 11.5V20.5C1 21.8807 2.11929 23 3.5 23H8.5C9.88071 23 11 21.8807 11 20.5V11.5C11 10.1193 9.88071 9 8.5 9Z" fill="currentColor"/>
        <path d="M20.4999 1H15.4999C14.1192 1 12.9999 2.11929 12.9999 3.5V12.5C12.9999 13.8807 14.1192 15 15.4999 15H20.4999C21.8806 15 22.9999 13.8807 22.9999 12.5V3.5C22.9999 2.11929 21.8806 1 20.4999 1Z" fill="currentColor"/>
    </symbol>
    <symbol id="concierge">
        <path d="M20.25 11.25H18.75V7.5C18.75 6.90326 18.5129 6.33097 18.091 5.90901C17.669 5.48705 17.0967 5.25 16.5 5.25H12.75V3.75C12.75 2.95435 12.4339 2.19129 11.8713 1.62868C11.3087 1.06607 10.5456 0.75 9.75 0.75C8.95435 0.75 8.19129 1.06607 7.62868 1.62868C7.06607 2.19129 6.75 2.95435 6.75 3.75V5.25H3C2.40326 5.25 1.83097 5.48705 1.40901 5.90901C0.987053 6.33097 0.75 6.90326 0.75 7.5V12C0.75 12.1989 0.829018 12.3897 0.96967 12.5303C1.11032 12.671 1.30109 12.75 1.5 12.75H3.75C4.14782 12.75 4.52936 12.908 4.81066 13.1893C5.09196 13.4706 5.25 13.8522 5.25 14.25C5.25 14.6478 5.09196 15.0294 4.81066 15.3107C4.52936 15.592 4.14782 15.75 3.75 15.75H1.5C1.30109 15.75 1.11032 15.829 0.96967 15.9697C0.829018 16.1103 0.75 16.3011 0.75 16.5V21C0.75 21.5967 0.987053 22.169 1.40901 22.591C1.83097 23.0129 2.40326 23.25 3 23.25H7.5C7.69891 23.25 7.88968 23.171 8.03033 23.0303C8.17098 22.8897 8.25 22.6989 8.25 22.5V20.25C8.25 19.8522 8.40804 19.4706 8.68934 19.1893C8.97064 18.908 9.35218 18.75 9.75 18.75C10.1478 18.75 10.5294 18.908 10.8107 19.1893C11.092 19.4706 11.25 19.8522 11.25 20.25V22.5C11.25 22.6989 11.329 22.8897 11.4697 23.0303C11.6103 23.171 11.8011 23.25 12 23.25H16.5C17.0967 23.25 17.669 23.0129 18.091 22.591C18.5129 22.169 18.75 21.5967 18.75 21V17.25H20.25C21.0456 17.25 21.8087 16.9339 22.3713 16.3713C22.9339 15.8087 23.25 15.0456 23.25 14.25C23.25 13.4544 22.9339 12.6913 22.3713 12.1287C21.8087 11.5661 21.0456 11.25 20.25 11.25Z" fill="currentColor"/>
    </symbol>
    <symbol id="rooms">
        <path d="M17.2055 0C13.4561 0 10.4131 3.04152 10.4131 6.79238C10.4131 7.83836 10.6695 8.81957 11.0908 9.704L0.443405 20.3561C-0.146825 20.9464 -0.146825 21.9003 0.443405 22.4906L1.51061 23.5578C1.79292 23.8416 2.17622 24 2.57782 24C2.97777 24 3.36125 23.8416 3.64502 23.5578L6.01783 21.185L8.18682 23.3586C8.47059 23.6409 8.85384 23.7993 9.25403 23.7993C9.65567 23.7993 10.0389 23.6423 10.3212 23.3586L10.8557 22.8244C11.4459 22.2341 11.4459 21.2802 10.8557 20.6899L8.68361 18.5164L14.2938 12.9057C15.1814 13.3283 16.1595 13.5848 17.2069 13.5848C20.9592 13.5848 23.9993 10.5432 23.9993 6.79238C23.9993 3.04152 20.9594 0 17.2055 0ZM17.2055 10.5659C15.1239 10.5659 13.4319 8.87221 13.4319 6.79238C13.4319 4.71254 15.1239 3.01883 17.2055 3.01883C19.287 3.01883 20.979 4.71254 20.979 6.79238C20.979 8.87221 19.287 10.5659 17.2055 10.5659Z" fill="currentColor"/>
    </symbol>
    <symbol id="settings">
        <path d="M21.9075 8.87999C21.4699 8.81642 21.0522 8.65494 20.6856 8.40758C20.3191 8.16022 20.013 7.83335 19.7903 7.45131C19.5675 7.06927 19.4339 6.6419 19.3992 6.20103C19.3645 5.76017 19.4297 5.31715 19.59 4.90499C19.6919 4.63554 19.7069 4.34095 19.6329 4.06254C19.559 3.78412 19.3997 3.53584 19.1775 3.35249C18.1965 2.52874 17.0799 1.88162 15.8775 1.43999C15.6037 1.33828 15.3048 1.32557 15.0233 1.40368C14.7419 1.48178 14.4922 1.64672 14.31 1.87499C14.0357 2.22573 13.6852 2.50941 13.2849 2.7045C12.8847 2.8996 12.4453 3.00099 12 3.00099C11.5548 3.00099 11.1153 2.8996 10.7151 2.7045C10.3149 2.50941 9.96431 2.22573 9.69002 1.87499C9.50778 1.64672 9.25816 1.48178 8.9767 1.40368C8.69525 1.32557 8.39632 1.33828 8.12252 1.43999C7.01227 1.84772 5.97421 2.43005 5.04752 3.16499C4.81392 3.34991 4.64567 3.60477 4.56739 3.89223C4.48912 4.17969 4.50493 4.48466 4.61252 4.76249C4.78558 5.18556 4.85709 5.6433 4.8213 6.09899C4.7855 6.55468 4.64341 6.99565 4.40642 7.3865C4.16942 7.77736 3.84412 8.10724 3.45661 8.34967C3.0691 8.5921 2.63016 8.74034 2.17502 8.78249C1.87952 8.81409 1.60198 8.93972 1.38325 9.1409C1.16452 9.34207 1.01616 9.60816 0.960016 9.89999C0.820364 10.5913 0.750016 11.2947 0.750016 12C0.74899 12.5904 0.796651 13.1799 0.892516 13.7625C0.940227 14.0637 1.08583 14.3407 1.3068 14.5509C1.52778 14.761 1.81182 14.8925 2.11502 14.925C2.58016 14.9686 3.02808 15.1231 3.42129 15.3754C3.8145 15.6277 4.14156 15.9705 4.37509 16.3751C4.60862 16.7797 4.74182 17.2344 4.76356 17.7011C4.78529 18.1678 4.69492 18.6329 4.50002 19.0575C4.37246 19.3337 4.34082 19.6445 4.41012 19.9408C4.47942 20.237 4.64568 20.5016 4.88252 20.6925C5.8576 21.5013 6.96345 22.1379 8.15252 22.575C8.30457 22.6277 8.46411 22.6555 8.62502 22.6575C8.84564 22.657 9.06294 22.6036 9.25868 22.5019C9.45443 22.4001 9.62292 22.2528 9.75002 22.0725C10.0173 21.683 10.3757 21.3647 10.7939 21.1451C11.2121 20.9255 11.6776 20.8114 12.15 20.8125C12.6077 20.8131 13.0589 20.9205 13.4678 21.1262C13.8766 21.332 14.2318 21.6303 14.505 21.9975C14.6867 22.2418 14.9442 22.4191 15.2372 22.5019C15.5302 22.5846 15.8423 22.5681 16.125 22.455C17.2123 22.0174 18.2245 21.4126 19.125 20.6625C19.3512 20.4755 19.5123 20.2215 19.5851 19.9372C19.6578 19.6528 19.6386 19.3527 19.53 19.08C19.3536 18.6624 19.2767 18.2095 19.3053 17.757C19.334 17.3046 19.4674 16.865 19.6951 16.473C19.9227 16.0809 20.2384 15.7472 20.6171 15.4981C20.9959 15.2489 21.4274 15.0913 21.8775 15.0375C22.1694 14.9971 22.4409 14.8649 22.6526 14.6599C22.8643 14.455 23.0052 14.1879 23.055 13.8975C23.1755 13.2719 23.2407 12.637 23.25 12C23.2502 11.3281 23.1874 10.6577 23.0625 9.99749C23.0119 9.71347 22.873 9.45262 22.6657 9.25201C22.4583 9.0514 22.1931 8.92123 21.9075 8.87999ZM15.75 12C15.75 12.7417 15.5301 13.4667 15.118 14.0834C14.706 14.7001 14.1203 15.1807 13.4351 15.4645C12.7499 15.7484 11.9959 15.8226 11.2684 15.6779C10.541 15.5332 9.87281 15.1761 9.34837 14.6516C8.82392 14.1272 8.46677 13.459 8.32207 12.7316C8.17738 12.0042 8.25164 11.2502 8.53547 10.5649C8.8193 9.87971 9.29994 9.29404 9.91663 8.88198C10.5333 8.46992 11.2583 8.24999 12 8.24999C12.9946 8.24999 13.9484 8.64508 14.6517 9.34834C15.3549 10.0516 15.75 11.0054 15.75 12Z" fill="currentColor"/>
    </symbol>
    <!-- viewBox="0 0 24 24" -->
    <symbol id="search">
        <g clip-path="url(#clip0)">
            <path d="M9.65925 19.3101C11.8044 19.3101 13.8882 18.5944 15.5806 17.2763L21.9653 23.661C22.4423 24.1217 23.2023 24.1085 23.663 23.6315C24.1123 23.1662 24.1123 22.4286 23.663 21.9634L17.2782 15.5786C20.5491 11.3681 19.7874 5.3032 15.5769 2.03229C11.3663 -1.23862 5.30149 -0.476936 2.03058 3.7336C-1.24033 7.94415 -0.478646 14.009 3.73189 17.2799C5.42702 18.5968 7.51269 19.3112 9.65925 19.3101ZM4.52915 4.52716C7.36245 1.6938 11.9561 1.69375 14.7895 4.52706C17.6229 7.36036 17.6229 11.9541 14.7896 14.7874C11.9563 17.6208 7.36261 17.6208 4.52925 14.7875C4.5292 14.7875 4.5292 14.7875 4.52915 14.7874C1.69584 11.9748 1.67915 7.39781 4.49181 4.5645C4.50424 4.55202 4.51667 4.53959 4.52915 4.52716Z" fill="currentColor"/>
        </g>
        <defs>
            <clipPath id="clip0">
                <rect width="24" height="24" fill="white"/>
            </clipPath>
        </defs>
    </symbol>
    <symbol id="notification">
        <path d="M8.95923 22.0012C9.48048 23.1734 10.6363 23.9999 12.0005 23.9999C13.3646 23.9999 14.5205 23.1734 15.0418 22.0012C14.0799 22.0483 13.0796 22.0799 12.0005 22.0799C10.9215 22.0799 9.92115 22.0482 8.95923 22.0012Z" fill="currentColor"/>
        <path d="M22.5885 16.92C21.3232 15.3245 19.1997 12.1882 19.1997 9.12C19.1997 6.07776 17.2451 3.34078 14.3997 2.3347C14.3651 1.04062 13.3015 0 12.0006 0C10.6989 0 9.63617 1.04062 9.60157 2.3347C6.75518 3.34078 4.80064 6.07776 4.80064 9.12C4.80064 12.1891 2.67809 15.3245 1.41185 16.92C0.989464 17.4528 0.85887 18.1565 1.06339 18.8025C1.26307 19.4332 1.76032 19.9219 2.39393 20.1082C3.5037 20.4355 5.32287 20.8042 8.09731 20.9923C9.29825 21.0729 10.5895 21.12 12.0007 21.12C13.4109 21.12 14.7021 21.0729 15.9031 20.9923C18.6784 20.8042 20.4967 20.4355 21.6074 20.1082C22.241 19.9219 22.7373 19.4333 22.937 18.8025C23.1415 18.1565 23.0099 17.4528 22.5885 16.92Z" fill="currentColor"/>
    </symbol>
    <symbol id="email">
        <path d="M23.208 5.35425C23.1103 4.7009 22.7817 4.10419 22.2818 3.67229C21.7819 3.24038 21.1439 3.00188 20.4832 3H3.51674C2.85613 3.00188 2.21805 3.24038 1.71818 3.67229C1.2183 4.10419 0.889719 4.7009 0.791992 5.35425L12 12.6068L23.208 5.35425Z" fill="currentColor"/>
        <path d="M12.4072 14.13C12.2859 14.2085 12.1445 14.2502 12 14.2502C11.8555 14.2502 11.7141 14.2085 11.5927 14.13L0.75 7.11452V18.2333C0.750794 18.9668 1.04255 19.6701 1.56124 20.1888C2.07993 20.7075 2.78321 20.9992 3.51675 21H20.4832C21.2168 20.9992 21.9201 20.7075 22.4388 20.1888C22.9575 19.6701 23.2492 18.9668 23.25 18.2333V7.11377L12.4072 14.13Z" fill="currentColor"/>
    </symbol>

    <!-- viewBox="0 0 23 23" -->
    <symbol id="phone">
        <g clip-path="url(#clip0)">
            <path d="M22.0202 17.2472L18.9572 14.1949C18.3521 13.6005 17.3828 13.6005 16.7777 14.1949L14.8339 16.1869C14.6358 16.3583 14.3466 16.3583 14.1485 16.1869C12.708 15.0357 11.3265 13.8147 10.0145 12.5189C8.70259 11.2176 7.47097 9.84677 6.31432 8.40631C6.13225 8.21354 6.13225 7.91366 6.31432 7.72089L8.34917 5.73423C8.94356 5.11842 8.94356 4.14383 8.34917 3.52802L5.28618 0.465026C4.66502 -0.113301 3.70114 -0.113301 3.07997 0.465026L0.563181 2.99253C0.563181 2.99253 0.450729 3.09963 0.413245 3.14247C-1.0058 4.84532 1.25932 10.2484 6.75342 15.7104C10.7535 19.7319 15.273 22.4254 17.9719 22.4254C18.4217 22.4682 18.8929 22.4147 19.2678 22.163C19.3427 22.1094 19.5516 21.922 19.5516 21.922L22.0202 19.4427C22.6199 18.8323 22.6199 17.8577 22.0202 17.2472Z" fill="currentColor"/>
        </g>
        <defs>
            <clipPath id="clip0">
                <rect width="22.47" height="22.47" fill="white"/>
            </clipPath>
        </defs>
    </symbol>
</svg>
